<?xml version="1.0" encoding="utf-8"?>
<!-- Generator: Adobe Illustrator 24.1.2, SVG Export Plug-In . SVG Version: 6.00 Build 0)  -->
<svg version="1.1" id="Layer_1" xmlns="http://www.w3.org/2000/svg" xmlns:xlink="http://www.w3.org/1999/xlink" x="0px" y="0px"
	 viewBox="0 0 181.5 82.1" style="enable-background:new 0 0 181.5 82.1;" xml:space="preserve">
<style type="text/css">
	.st0{fill:#FFFFFF;}
</style>
<g>
	<g>
		<path class="st0" d="M49.3,24.7c0.7-0.6,1.2-1.3,1.6-2.2c0.4-0.9,0.5-1.8,0.5-2.9c0-1.6-0.4-2.8-1.2-3.8c-0.8-1-2.1-1.7-3.8-2.3
			c-0.4-0.1-0.9-0.3-1.3-0.4c-0.4-0.1-0.8-0.3-1.2-0.4c-0.4-0.2-0.6-0.4-0.9-0.6c-0.2-0.2-0.3-0.5-0.3-0.9c0-0.5,0.2-1,0.7-1.3
			c0.4-0.3,1-0.5,1.7-0.5c0.5,0,1.1,0.1,1.7,0.3c0.6,0.2,1.2,0.6,1.7,1l2.1-4.2c-1-0.5-2.1-1-3.2-1.2c-1.1-0.3-2.2-0.4-3.2-0.4
			c-1.1,0-2.1,0.2-3,0.5c-0.9,0.3-1.6,0.8-2.2,1.4c-0.6,0.6-1.1,1.3-1.4,2.1c-0.3,0.8-0.5,1.7-0.5,2.8c0,1,0.2,1.9,0.5,2.5
			c0.3,0.7,0.7,1.2,1.3,1.6c0.5,0.4,1.1,0.8,1.8,1c0.7,0.3,1.3,0.5,2,0.7c0.6,0.2,1.1,0.4,1.5,0.5c0.4,0.2,0.7,0.3,1,0.5
			c0.3,0.2,0.4,0.4,0.5,0.6c0.1,0.2,0.2,0.5,0.2,0.8c0,0.5-0.2,1-0.6,1.4c-0.4,0.4-1.1,0.6-1.9,0.6c-0.8,0-1.5-0.2-2.3-0.5
			c-0.8-0.3-1.6-0.9-2.4-1.6l-2.3,4.3c2.2,1.5,4.6,2.3,7.2,2.3c1.3,0,2.4-0.2,3.4-0.5C47.8,25.8,48.6,25.3,49.3,24.7z"/>
		<polygon class="st0" points="52.9,10 57.3,10 57.3,26.1 62.7,26.1 62.7,10 67,10 67,5.5 52.9,5.5 		"/>
		<path class="st0" d="M83.4,15.7c0.8-1,1.1-2.2,1.1-3.8c0-0.9-0.1-1.7-0.4-2.5c-0.3-0.8-0.7-1.4-1.3-2c-0.6-0.6-1.3-1-2.1-1.4
			c-0.9-0.3-1.9-0.5-3-0.5h-8.3v20.6h5.3v-7.9l5.1,7.9h6.7L80,17.6C81.5,17.3,82.6,16.6,83.4,15.7z M78.2,14
			c-0.6,0.4-1.4,0.7-2.4,0.7h-1V9.6h1c1.1,0,1.9,0.2,2.4,0.7c0.6,0.4,0.8,1.1,0.8,1.9C79,13,78.8,13.6,78.2,14z"/>
		<path class="st0" d="M107,8.1c-1-1-2.2-1.7-3.6-2.3c-1.4-0.6-2.9-0.8-4.6-0.8c-1.7,0-3.2,0.3-4.6,0.8c-1.4,0.6-2.6,1.3-3.6,2.3
			c-1,1-1.8,2.1-2.3,3.4c-0.6,1.3-0.8,2.7-0.8,4.3s0.3,2.9,0.8,4.3c0.6,1.3,1.3,2.5,2.3,3.4c1,1,2.2,1.7,3.6,2.3
			c1.4,0.6,2.9,0.8,4.6,0.8c1.7,0,3.2-0.3,4.6-0.8c1.4-0.6,2.6-1.3,3.6-2.3c1-1,1.8-2.1,2.4-3.4c0.6-1.3,0.8-2.7,0.8-4.3
			s-0.3-2.9-0.8-4.3C108.8,10.2,108,9,107,8.1z M104.1,18c-0.3,0.7-0.7,1.3-1.3,1.8c-0.5,0.5-1.2,0.9-1.9,1.2
			c-0.7,0.3-1.4,0.4-2.2,0.4c-0.8,0-1.5-0.1-2.2-0.4c-0.7-0.3-1.3-0.7-1.8-1.2c-0.5-0.5-0.9-1.1-1.3-1.8c-0.3-0.7-0.5-1.4-0.5-2.3
			s0.2-1.6,0.5-2.3c0.3-0.7,0.7-1.3,1.3-1.8c0.5-0.5,1.1-0.9,1.8-1.2c0.7-0.3,1.4-0.4,2.2-0.4c0.8,0,1.5,0.1,2.2,0.4
			c0.7,0.3,1.3,0.7,1.9,1.2c0.5,0.5,1,1.1,1.3,1.8c0.3,0.7,0.5,1.4,0.5,2.3S104.4,17.3,104.1,18z"/>
		<polygon class="st0" points="118.7,5.5 113.3,5.5 113.3,26.1 125.1,26.1 125.1,21.5 118.7,21.5 		"/>
		<polygon class="st0" points="133.4,5.5 128.1,5.5 128.1,26.1 139.8,26.1 139.8,21.5 133.4,21.5 		"/>
		<rect x="142.6" y="5.5" class="st0" width="5.3" height="20.6"/>
		<polygon class="st0" points="167.4,18.1 157.6,5.5 152.2,5.5 152.2,26.1 157.6,26.1 157.6,13.5 167.4,26.1 172.7,26.1 172.7,5.5 
			167.4,5.5 		"/>
		<polygon class="st0" points="176.8,5.5 175.1,14.1 178.2,14.1 181.5,5.5 		"/>
		<polygon class="st0" points="41.8,31.6 41.8,30.2 37.2,30.2 37.2,39.5 38.6,39.5 38.6,35.1 41.7,35.1 41.7,33.8 38.6,33.8 
			38.6,31.6 		"/>
		<path class="st0" d="M49.1,30.1c-1.3,0-2.5,0.5-3.4,1.4c-1,0.9-1.4,2.1-1.4,3.4c0,1.5,0.5,2.7,1.6,3.6c1,0.8,2,1.2,3.2,1.2
			c1.4,0,2.5-0.5,3.5-1.4c1-0.9,1.4-2.1,1.4-3.4c0-1.3-0.5-2.5-1.4-3.4C51.6,30.5,50.4,30.1,49.1,30.1z M51.5,37.4
			c-0.7,0.7-1.5,1-2.5,1c-0.9,0-1.7-0.3-2.4-1c-0.7-0.7-1-1.5-1-2.5c0-1,0.3-1.8,1-2.5c0.7-0.7,1.5-1,2.5-1c1,0,1.8,0.3,2.4,1
			c0.7,0.7,1,1.5,1,2.5C52.5,35.9,52.2,36.7,51.5,37.4z"/>
		<path class="st0" d="M61.6,34.7c0.4-0.5,0.6-1,0.6-1.7c0-0.8-0.3-1.5-0.9-2c-0.5-0.5-1.4-0.7-2.7-0.7H57v9.3h1.4v-3.8h0.3l2.7,3.8
			H63l-2.9-4C60.7,35.4,61.2,35.1,61.6,34.7z M58.4,34.5v-3h0.5c1.3,0,1.9,0.5,1.9,1.4c0,1-0.7,1.5-2,1.5H58.4z"/>
		<polygon class="st0" points="36.2,42.7 38.3,42.7 38.3,50.6 39.7,50.6 39.7,42.7 41.9,42.7 41.9,41.3 36.2,41.3 		"/>
		<polygon class="st0" points="49.8,45 45.8,45 45.8,41.3 44.4,41.3 44.4,50.6 45.8,50.6 45.8,46.3 49.8,46.3 49.8,50.6 51.2,50.6 
			51.2,41.3 49.8,41.3 		"/>
		<polygon class="st0" points="54.6,50.6 59.8,50.6 59.8,49.3 56,49.3 56,46.2 59.7,46.2 59.7,44.9 56,44.9 56,42.7 59.8,42.7 
			59.8,41.3 54.6,41.3 		"/>
	</g>
	<g>
		<path class="st0" d="M0,62.1l4,20c4.9-5.4,9.6-12,13.6-19.5c-2.1-3.9-3.9-8-5.5-12.3C9.1,53.9,5.3,57.6,0,62.1z"/>
		<path class="st0" d="M23.9,47.9c3.2-9.3,5.5-20.7,5.4-31.9C28.9-5.6,8.8-5.2,8.5,16.1C8.2,44.6,20.7,68,33.6,82.1l4-20
			C31.2,56.7,27.1,52.4,23.9,47.9z M18.8,3.7c9.9,0,4.2,28.2,0,35.3C14.7,32.1,8.9,3.7,18.8,3.7z"/>
		<path class="st0" d="M79.6,29.5c-1.4,0-2.8,0.3-4.1,0.8c-1.3,0.5-2.5,1.3-3.4,2.2c-1,1-1.8,2.1-2.4,3.4c-0.6,1.3-0.9,2.8-0.9,4.3
			s0.3,3,0.9,4.4c0.6,1.3,1.4,2.5,2.4,3.5c1,1,2.1,1.7,3.4,2.3c1.3,0.5,2.7,0.8,4.1,0.8c0.7,0,1.4-0.1,2.1-0.2
			c0.7-0.1,1.5-0.4,2.3-0.6l0.5-0.2v-6.3c-1.4,1.5-2.9,2.2-4.6,2.2c-0.8,0-1.5-0.1-2.2-0.4c-0.7-0.3-1.3-0.7-1.8-1.2
			c-0.5-0.5-0.9-1.1-1.2-1.8c-0.3-0.7-0.4-1.4-0.4-2.3c0-0.8,0.1-1.5,0.4-2.2c0.3-0.7,0.7-1.3,1.2-1.8c0.5-0.5,1.1-0.9,1.8-1.2
			c0.7-0.3,1.4-0.4,2.2-0.4c1.8,0,3.3,0.8,4.6,2.3v-6.4c-0.9-0.4-1.7-0.6-2.5-0.8C81.2,29.5,80.4,29.5,79.6,29.5z"/>
		<path class="st0" d="M107,32.6c-1-1-2.2-1.7-3.6-2.3c-1.4-0.6-2.9-0.8-4.6-0.8c-1.7,0-3.2,0.3-4.6,0.8c-1.4,0.6-2.6,1.3-3.6,2.3
			c-1,1-1.8,2.1-2.3,3.4c-0.6,1.3-0.8,2.7-0.8,4.3s0.3,2.9,0.8,4.3c0.6,1.3,1.3,2.5,2.3,3.4c1,1,2.2,1.7,3.6,2.3
			c1.4,0.6,2.9,0.8,4.6,0.8c1.7,0,3.2-0.3,4.6-0.8c1.4-0.6,2.6-1.3,3.6-2.3c1-1,1.8-2.1,2.4-3.4c0.6-1.3,0.8-2.7,0.8-4.3
			s-0.3-2.9-0.8-4.3C108.8,34.7,108,33.6,107,32.6z M104.1,42.6c-0.3,0.7-0.7,1.3-1.3,1.8c-0.5,0.5-1.2,0.9-1.9,1.2
			c-0.7,0.3-1.4,0.4-2.2,0.4c-0.8,0-1.5-0.1-2.2-0.4c-0.7-0.3-1.3-0.7-1.8-1.2c-0.5-0.5-0.9-1.1-1.3-1.8c-0.3-0.7-0.5-1.4-0.5-2.3
			s0.2-1.6,0.5-2.3c0.3-0.7,0.7-1.3,1.3-1.8c0.5-0.5,1.1-0.9,1.8-1.2c0.7-0.3,1.4-0.4,2.2-0.4c0.8,0,1.5,0.1,2.2,0.4
			c0.7,0.3,1.3,0.7,1.9,1.2c0.5,0.5,1,1.1,1.3,1.8c0.3,0.7,0.5,1.4,0.5,2.3S104.4,41.9,104.1,42.6z"/>
		<polygon class="st0" points="118.7,30 113.3,30 113.3,50.6 125.1,50.6 125.1,46.1 118.7,46.1 		"/>
		<path class="st0" d="M146.1,32.6c-1-1-2.2-1.7-3.6-2.3c-1.4-0.6-2.9-0.8-4.6-0.8c-1.7,0-3.2,0.3-4.6,0.8c-1.4,0.6-2.6,1.3-3.6,2.3
			c-1,1-1.8,2.1-2.3,3.4c-0.6,1.3-0.8,2.7-0.8,4.3s0.3,2.9,0.8,4.3c0.6,1.3,1.3,2.5,2.3,3.4c1,1,2.2,1.7,3.6,2.3
			c1.4,0.6,2.9,0.8,4.6,0.8c1.7,0,3.2-0.3,4.6-0.8c1.4-0.6,2.6-1.3,3.6-2.3c1-1,1.8-2.1,2.4-3.4c0.6-1.3,0.8-2.7,0.8-4.3
			s-0.3-2.9-0.8-4.3C147.9,34.7,147.1,33.6,146.1,32.6z M143.2,42.6c-0.3,0.7-0.7,1.3-1.3,1.8c-0.5,0.5-1.2,0.9-1.9,1.2
			c-0.7,0.3-1.4,0.4-2.2,0.4c-0.8,0-1.5-0.1-2.2-0.4c-0.7-0.3-1.3-0.7-1.8-1.2c-0.5-0.5-0.9-1.1-1.3-1.8c-0.3-0.7-0.5-1.4-0.5-2.3
			s0.2-1.6,0.5-2.3c0.3-0.7,0.7-1.3,1.3-1.8c0.5-0.5,1.1-0.9,1.8-1.2c0.7-0.3,1.4-0.4,2.2-0.4c0.8,0,1.5,0.1,2.2,0.4
			c0.7,0.3,1.3,0.7,1.9,1.2c0.5,0.5,1,1.1,1.3,1.8c0.3,0.7,0.5,1.4,0.5,2.3S143.5,41.9,143.2,42.6z"/>
		<polygon class="st0" points="167.4,30 167.4,42.6 157.6,30 152.2,30 152.2,50.6 157.6,50.6 157.6,38 167.4,50.6 172.7,50.6 
			172.7,30 		"/>
	</g>
</g>
</svg>
