<?xml version="1.0" encoding="utf-8"?>
<!-- Generator: Adobe Illustrator 24.1.2, SVG Export Plug-In . SVG Version: 6.00 Build 0)  -->
<svg version="1.1" id="Layer_1" xmlns="http://www.w3.org/2000/svg" xmlns:xlink="http://www.w3.org/1999/xlink" x="0px" y="0px"
	 viewBox="0 0 458.6 207.4" style="enable-background:new 0 0 458.6 207.4;" xml:space="preserve">
<style type="text/css">
	.st0{fill:#001C71;}
	.st1{fill:#0071CE;}
</style>
<g>
	<g>
		<path class="st0" d="M124.5,62.4c1.7-1.5,3-3.4,3.9-5.5c0.9-2.2,1.3-4.6,1.3-7.2c0-3.9-1-7.2-3.1-9.6c-2-2.5-5.3-4.4-9.7-5.9
			c-1.1-0.4-2.2-0.7-3.3-1c-1.1-0.3-2.1-0.7-3-1.1c-0.9-0.4-1.6-1-2.2-1.5c-0.6-0.6-0.8-1.4-0.8-2.3c0-1.3,0.6-2.4,1.7-3.2
			c1.1-0.8,2.5-1.2,4.3-1.2c1.4,0,2.8,0.3,4.3,0.9c1.5,0.6,2.9,1.5,4.4,2.7l5.4-10.5c-2.6-1.4-5.3-2.4-8.1-3.1
			c-2.8-0.7-5.5-1.1-8.1-1.1c-2.8,0-5.2,0.4-7.5,1.2c-2.2,0.8-4.1,2-5.6,3.5c-1.5,1.5-2.7,3.3-3.6,5.4c-0.9,2.1-1.3,4.4-1.3,7
			c0,2.6,0.4,4.7,1.2,6.4c0.8,1.7,1.9,3.1,3.2,4.2c1.3,1.1,2.8,2,4.5,2.7c1.7,0.7,3.4,1.3,5.1,1.8c1.5,0.5,2.7,1,3.8,1.4
			c1,0.4,1.9,0.9,2.5,1.3c0.6,0.5,1.1,1,1.4,1.6c0.3,0.6,0.4,1.3,0.4,2c0,1.3-0.5,2.4-1.6,3.4c-1.1,1-2.7,1.5-4.9,1.5
			c-1.9,0-3.9-0.4-5.9-1.3c-2-0.9-4-2.2-6-4l-5.8,10.9c5.6,3.9,11.7,5.9,18.3,5.9c3.2,0,6-0.4,8.5-1.3
			C120.7,65.2,122.8,64,124.5,62.4z"/>
		<polygon class="st0" points="133.7,25.3 144.8,25.3 144.8,65.8 158.3,65.8 158.3,25.3 169.4,25.3 169.4,13.9 133.7,13.9 		"/>
		<path class="st0" d="M210.7,39.6c1.9-2.5,2.9-5.7,2.9-9.6c0-2.2-0.4-4.3-1.1-6.2c-0.7-1.9-1.8-3.6-3.2-5.1
			c-1.4-1.5-3.2-2.6-5.3-3.5c-2.2-0.8-4.7-1.3-7.6-1.3h-21v51.9h13.5v-20l12.9,20h16.8l-16.3-21.3C206,43.7,208.8,42,210.7,39.6z
			 M197.6,35.5c-1.4,1.1-3.5,1.7-6.1,1.7h-2.5V24.3h2.5c2.7,0,4.7,0.6,6.1,1.7c1.4,1.1,2.1,2.7,2.1,4.8S199,34.4,197.6,35.5z"/>
		<path class="st0" d="M270.4,20.4c-2.5-2.5-5.6-4.4-9.1-5.8c-3.5-1.4-7.4-2.1-11.6-2.1c-4.2,0-8.1,0.7-11.6,2.1
			c-3.5,1.4-6.5,3.3-9.1,5.8c-2.5,2.5-4.5,5.4-5.9,8.7c-1.4,3.3-2.1,6.9-2.1,10.8s0.7,7.5,2.1,10.8c1.4,3.3,3.4,6.2,5.9,8.7
			c2.5,2.5,5.5,4.4,9.1,5.8c3.5,1.4,7.4,2.1,11.6,2.1c4.2,0,8-0.7,11.6-2.1c3.5-1.4,6.6-3.3,9.1-5.8c2.5-2.5,4.5-5.4,6-8.7
			c1.4-3.3,2.1-6.9,2.1-10.8s-0.7-7.4-2.1-10.8C274.9,25.8,272.9,22.9,270.4,20.4z M263.2,45.6c-0.8,1.7-1.8,3.3-3.2,4.5
			c-1.4,1.3-2.9,2.3-4.7,3c-1.8,0.7-3.6,1.1-5.6,1.1c-2,0-3.8-0.4-5.6-1.1c-1.8-0.7-3.3-1.7-4.6-3c-1.3-1.3-2.4-2.8-3.2-4.5
			c-0.8-1.7-1.2-3.7-1.2-5.7s0.4-4,1.2-5.7c0.8-1.7,1.8-3.3,3.2-4.5c1.3-1.3,2.9-2.3,4.6-3c1.8-0.7,3.6-1.1,5.6-1.1
			c2,0,3.8,0.4,5.6,1.1c1.8,0.7,3.3,1.7,4.7,3c1.4,1.3,2.4,2.8,3.2,4.5c0.8,1.7,1.2,3.7,1.2,5.7S263.9,43.8,263.2,45.6z"/>
		<polygon class="st0" points="299.9,13.9 286.4,13.9 286.4,65.8 316.1,65.8 316.1,54.4 299.9,54.4 		"/>
		<polygon class="st0" points="337.1,13.9 323.6,13.9 323.6,65.8 353.3,65.8 353.3,54.4 337.1,54.4 		"/>
		<rect x="360.3" y="13.9" class="st0" width="13.5" height="51.9"/>
		<polygon class="st0" points="423.1,45.7 398.2,13.9 384.7,13.9 384.7,65.8 398.2,65.8 398.2,34.1 423.1,65.8 436.5,65.8 
			436.5,13.9 423.1,13.9 		"/>
		<polygon class="st0" points="446.8,13.9 442.4,35.7 450.4,35.7 458.6,13.9 		"/>
		<polygon class="st0" points="105.7,79.8 105.7,76.4 94,76.4 94,99.9 97.5,99.9 97.5,88.7 105.4,88.7 105.4,85.4 97.5,85.4 
			97.5,79.8 		"/>
		<path class="st0" d="M124.1,76c-3.4,0-6.3,1.2-8.7,3.6c-2.4,2.4-3.6,5.2-3.6,8.5c0,3.8,1.3,6.8,4,9.1c2.4,2.1,5.1,3.1,8.2,3.1
			c3.4,0,6.4-1.2,8.8-3.5c2.4-2.4,3.6-5.2,3.6-8.6c0-3.4-1.2-6.2-3.6-8.6C130.3,77.2,127.5,76,124.1,76z M130.2,94.5
			c-1.7,1.7-3.8,2.6-6.2,2.6c-2.3,0-4.3-0.8-6-2.5c-1.7-1.7-2.6-3.8-2.6-6.4c0-2.5,0.8-4.6,2.5-6.2c1.7-1.7,3.7-2.6,6.2-2.6
			c2.5,0,4.5,0.9,6.2,2.6c1.7,1.7,2.5,3.8,2.5,6.3C132.8,90.6,131.9,92.7,130.2,94.5z"/>
		<path class="st0" d="M155.6,87.6c1-1.2,1.4-2.6,1.4-4.3c0-2.1-0.8-3.8-2.3-5.1c-1.4-1.2-3.6-1.8-6.7-1.8h-4.2v23.5h3.5v-9.6h0.6
			l6.7,9.6h4.3l-7.3-10C153.4,89.6,154.7,88.8,155.6,87.6z M147.5,87.2v-7.5h1.3c3.3,0,4.9,1.2,4.9,3.6c0,2.6-1.7,3.8-5,3.8H147.5z"
			/>
		<polygon class="st0" points="91.5,107.8 96.9,107.8 96.9,128 100.4,128 100.4,107.8 105.8,107.8 105.8,104.5 91.5,104.5 		"/>
		<polygon class="st0" points="125.8,113.7 115.7,113.7 115.7,104.5 112.1,104.5 112.1,128 115.7,128 115.7,117 125.8,117 
			125.8,128 129.3,128 129.3,104.5 125.8,104.5 		"/>
		<polygon class="st0" points="138.1,128 151.1,128 151.1,124.6 141.6,124.6 141.6,116.8 150.8,116.8 150.8,113.4 141.6,113.4 
			141.6,107.8 151.1,107.8 151.1,104.5 138.1,104.5 		"/>
	</g>
	<g>
		<path class="st1" d="M0,156.8l10.1,50.5c12.5-13.6,24.3-30.3,34.3-49.3c-5.2-9.8-9.9-20.2-13.9-31.1
			C22.9,136.2,13.4,145.5,0,156.8z"/>
		<path class="st1" d="M60.3,121.2c8.1-23.5,13.9-52.3,13.6-80.5C73.1-14,22.2-13,21.5,40.6C20.6,112.8,52.4,171.7,85,207.4
			l10.1-50.5C78.9,143.2,68.4,132.5,60.3,121.2z M47.5,9.4c24.9,0,10.5,71.3,0,89.1C37.2,81.2,22.4,9.4,47.5,9.4z"/>
		<path class="st1" d="M201,74.4c-3.6,0-7.1,0.7-10.4,2c-3.3,1.4-6.2,3.2-8.7,5.6c-2.5,2.4-4.5,5.3-6,8.6c-1.5,3.3-2.2,7-2.2,11
			s0.8,7.7,2.3,11.1c1.5,3.4,3.5,6.3,6,8.7c2.5,2.5,5.4,4.4,8.7,5.7c3.3,1.4,6.7,2,10.3,2c1.7,0,3.5-0.2,5.3-0.5
			c1.8-0.3,3.7-0.9,5.8-1.6l1.4-0.5v-16c-3.4,3.7-7.3,5.5-11.6,5.5c-2,0-3.8-0.4-5.5-1.1c-1.7-0.7-3.2-1.7-4.4-3
			c-1.3-1.3-2.2-2.8-3-4.5c-0.7-1.7-1.1-3.7-1.1-5.7c0-2,0.4-3.9,1.1-5.6c0.7-1.7,1.7-3.2,2.9-4.5c1.2-1.3,2.7-2.3,4.4-3
			c1.7-0.7,3.6-1.1,5.6-1.1c4.6,0,8.4,1.9,11.6,5.7V77.1c-2.2-0.9-4.3-1.6-6.3-2C205.1,74.7,203.1,74.4,201,74.4z"/>
		<path class="st1" d="M270.4,82.4c-2.5-2.5-5.6-4.4-9.1-5.8c-3.5-1.4-7.4-2.1-11.6-2.1c-4.2,0-8.1,0.7-11.6,2.1
			c-3.5,1.4-6.5,3.3-9.1,5.8c-2.5,2.5-4.5,5.4-5.9,8.7c-1.4,3.3-2.1,6.9-2.1,10.8c0,3.9,0.7,7.5,2.1,10.8c1.4,3.3,3.4,6.2,5.9,8.7
			c2.5,2.5,5.5,4.4,9.1,5.8c3.5,1.4,7.4,2.1,11.6,2.1c4.2,0,8-0.7,11.6-2.1c3.5-1.4,6.6-3.3,9.1-5.8c2.5-2.5,4.5-5.4,6-8.7
			c1.4-3.3,2.1-6.9,2.1-10.8c0-3.9-0.7-7.4-2.1-10.8C274.9,87.7,272.9,84.8,270.4,82.4z M263.2,107.6c-0.8,1.7-1.8,3.3-3.2,4.5
			c-1.4,1.3-2.9,2.3-4.7,3c-1.8,0.7-3.6,1.1-5.6,1.1c-2,0-3.8-0.4-5.6-1.1c-1.8-0.7-3.3-1.7-4.6-3c-1.3-1.3-2.4-2.8-3.2-4.5
			c-0.8-1.7-1.2-3.7-1.2-5.7c0-2.1,0.4-4,1.2-5.7c0.8-1.7,1.8-3.3,3.2-4.5c1.3-1.3,2.9-2.3,4.6-3c1.8-0.7,3.6-1.1,5.6-1.1
			c2,0,3.8,0.4,5.6,1.1c1.8,0.7,3.3,1.7,4.7,3c1.4,1.3,2.4,2.8,3.2,4.5c0.8,1.7,1.2,3.7,1.2,5.7
			C264.3,103.9,263.9,105.8,263.2,107.6z"/>
		<polygon class="st1" points="299.9,75.9 286.4,75.9 286.4,127.8 316.1,127.8 316.1,116.4 299.9,116.4 		"/>
		<path class="st1" d="M369.1,82.4c-2.5-2.5-5.6-4.4-9.1-5.8c-3.5-1.4-7.4-2.1-11.6-2.1c-4.2,0-8.1,0.7-11.6,2.1
			c-3.5,1.4-6.5,3.3-9.1,5.8c-2.5,2.5-4.5,5.4-5.9,8.7c-1.4,3.3-2.1,6.9-2.1,10.8c0,3.9,0.7,7.5,2.1,10.8c1.4,3.3,3.4,6.2,5.9,8.7
			c2.5,2.5,5.5,4.4,9.1,5.8c3.5,1.4,7.4,2.1,11.6,2.1c4.2,0,8-0.7,11.6-2.1c3.5-1.4,6.6-3.3,9.1-5.8c2.5-2.5,4.5-5.4,6-8.7
			c1.4-3.3,2.1-6.9,2.1-10.8c0-3.9-0.7-7.4-2.1-10.8C373.7,87.7,371.7,84.8,369.1,82.4z M361.9,107.6c-0.8,1.7-1.8,3.3-3.2,4.5
			c-1.4,1.3-2.9,2.3-4.7,3c-1.8,0.7-3.6,1.1-5.6,1.1c-2,0-3.8-0.4-5.6-1.1c-1.8-0.7-3.3-1.7-4.6-3c-1.3-1.3-2.4-2.8-3.2-4.5
			c-0.8-1.7-1.2-3.7-1.2-5.7c0-2.1,0.4-4,1.2-5.7c0.8-1.7,1.8-3.3,3.2-4.5c1.3-1.3,2.9-2.3,4.6-3c1.8-0.7,3.6-1.1,5.6-1.1
			c2,0,3.8,0.4,5.6,1.1c1.8,0.7,3.3,1.7,4.7,3c1.4,1.3,2.4,2.8,3.2,4.5c0.8,1.7,1.2,3.7,1.2,5.7
			C363.1,103.9,362.7,105.8,361.9,107.6z"/>
		<polygon class="st1" points="423.1,75.9 423.1,107.6 398.2,75.9 384.7,75.9 384.7,127.8 398.2,127.8 398.2,96.1 423.1,127.8 
			436.5,127.8 436.5,75.9 		"/>
	</g>
</g>
</svg>
