<?xml version="1.0" encoding="utf-8"?>
<!-- Generator: Adobe Illustrator 24.1.2, SVG Export Plug-In . SVG Version: 6.00 Build 0)  -->
<svg version="1.1" id="Layer_1" xmlns="http://www.w3.org/2000/svg" xmlns:xlink="http://www.w3.org/1999/xlink" x="0px" y="0px"
	 viewBox="0 0 260.2 54.6" style="enable-background:new 0 0 260.2 54.6;" xml:space="preserve">
<style type="text/css">
	.st0{fill:#FFFFFF;}
</style>
<g>
	<g>
		<path class="st0" d="M14.2,52.3c-0.2,0-0.6,0-1-0.1S12.3,52,12,51.8c-0.3-0.2-0.5-0.4-0.6-0.8l-0.3-3.4C10.4,39.9,10,34.5,10,31.3
			c0-3.2,0-4.8,0-5c0-6.1,0.8-12.7,2.4-19.9C8.7,7.1,5.2,8.1,1.7,9.5C1.5,9.6,1.3,9.7,1.1,9.7c-0.4,0-0.7-0.1-0.9-0.4
			C0.1,9.1,0,8.9,0,8.7C0,8.4,0.2,8.2,0.5,8c4-2.5,8.2-4.1,12.6-4.9c0.2-0.8,0.4-1.6,0.7-2.5C14,0.2,14.2,0,14.6,0
			c2.8,0,5.2,0.9,7.1,2.7l0.2,0.2c3.9,0.4,7.8,1.6,11.5,3.5C33.8,6.6,34,6.9,34,7.3c0,0.1,0,0.3-0.1,0.4c-0.2,0.3-0.5,0.5-1,0.5
			c-0.2,0-0.3,0-0.5-0.1C28.8,6.8,25.1,6.1,21.2,6c-1.6,5.5-2.7,10.4-3.3,14.8c-0.6,4.4-1,7.9-1,10.5c0,2.6,0,4.3,0,5.1
			c0,3.7,0.1,8.5,0.2,14.6c0,0.4-0.2,0.6-0.5,0.8c-0.4,0.2-0.8,0.3-1.2,0.4C14.8,52.2,14.5,52.3,14.2,52.3z"/>
		<path class="st0" d="M28.6,45.3c-3,0-5.2-1.7-6.5-5c-1.1-2.6-1.6-5.9-1.6-9.9c0-2.7,0.5-5.8,1.5-9.1c0.1-0.4,0.4-0.7,0.8-0.7
			c1.1,0,2.2,0.2,3.2,0.5c0.1-1.3,0.3-2.5,0.8-3.7c0.5-1.2,1.1-2.1,2-2.9c0.9-0.8,2-1.2,3.5-1.2c1.2,0,2.2,0.3,3,1
			c2.4,1.9,3.7,6.1,3.7,12.4c0,3.8-0.5,7.3-1.5,10.4c0.6,0.1,1.2,0.2,1.8,0.2c2.3,0,4.9-1.9,7.8-5.8c1-1.5,2-3.2,3-5.3
			c0.2-0.4,0.5-0.5,0.8-0.5c0.1,0,0.3,0,0.4,0.1c0.4,0.2,0.5,0.5,0.5,0.8c0,0.1,0,0.3-0.1,0.4c-1,2.1-2.1,3.9-3.2,5.5
			c-3.4,4.4-6.4,6.6-9.2,6.6c-0.8,0-1.7-0.1-2.5-0.3c-0.5,1.2-1.1,2.3-1.9,3.3c-0.8,1-1.7,1.7-2.7,2.3C31.2,45.1,30,45.3,28.6,45.3z
			 M30.5,42.6c1.4-0.1,2.6-1.7,3.6-5c-2.7-1.7-4.6-4.5-5.9-8.3c-0.5,1.7-0.8,3.5-0.8,5.6c0,2.7,0.3,4.7,0.9,5.9
			C28.9,42,29.6,42.6,30.5,42.6L30.5,42.6z M34.6,35.8c0.7-3.1,1.1-6.3,1.1-9.6c0-1.9-0.1-3.7-0.3-5.4c-0.2-1.7-0.6-3-1.1-4
			c-0.5-1-1.2-1.5-2.1-1.5c-1.1,0-2,0.4-2.7,1.1S28.5,18,28.2,19c-0.3,1-0.4,2-0.5,2.9c0.7,0.4,1.4,0.9,2,1.5C30,23.6,30,23.8,30,24
			c0,0.2-0.2,0.9-0.6,2.1c0.1,0.5,0.2,1,0.3,1.4C30.9,31.5,32.6,34.3,34.6,35.8z"/>
		<path class="st0" d="M67.6,50.9c-1,0-1.9-0.3-2.6-0.8c-1.5-1.1-2.3-4.1-2.3-8.9c0-2.9,0.2-6.6,0.7-11.2c0.3-3.6,0.5-6.1,0.5-7.7
			c0-0.8-0.1-1.5-0.2-2.3c-0.1-0.8-0.4-1.2-1-1.2c-0.8,0-1.8,1-2.8,2.9c-1,1.9-2,4.2-3,7c-0.9,2.8-1.7,5.5-2.3,8.2
			c-0.6,2.7-0.9,4.8-0.9,6.4v0.5c0,0.6-0.1,1.1-0.2,1.3s-0.5,0.3-1.2,0.3c-3.9,0-5.8-4.5-5.8-13.4c0-4.3,0.4-8.7,1.1-13.5
			c0.1-0.4,0.3-0.7,0.7-0.7c0.5-0.1,1-0.2,1.6-0.2c2.1,0,4,0.6,5.8,1.9c0.2,0.2,0.4,0.4,0.4,0.6c-0.4,2.6-0.8,5.5-1.3,8.6
			c0.7-2.4,1.6-4.6,2.6-6.7s2.2-3.8,3.5-5.1c1.3-1.3,2.8-2,4.4-2c4.3,0,6.5,3.1,6.5,9.2c0,3.1-0.5,6.9-1.4,11.5
			c-0.9,5-1.4,8.4-1.4,10.2c0,0.7,0.1,1.1,0.3,1.1c0.7,0,1.7-0.6,2.8-1.8c2.1-2.2,4.6-5.6,7.3-10.1c2.4-3.9,4-6.8,4.9-8.8
			c0.2-0.4,0.4-0.5,0.8-0.5c0.1,0,0.3,0,0.4,0.1c0.4,0.2,0.6,0.5,0.6,0.9c0,0.5-1.5,3.3-4.5,8.2c-2.1,3.6-4.4,7-7,10.3
			c-0.6,0.8-1.3,1.6-2,2.4C71.1,49.8,69.3,50.9,67.6,50.9z"/>
		<path class="st0" d="M86,44.7c-1.1,0-2.1-0.4-3.1-1.1c-1.5-1.1-2.2-3.9-2.2-8.2c0-1.6,0.2-3.8,0.5-6.4c0.3-2.6,0.8-5.4,1.4-8.3
			c0.6-2.9,1.2-5,1.5-6.1c0.1-0.4,0.4-0.7,0.8-0.7c2.9,0,5.3,0.9,7.1,2.7c0.2,0.2,0.3,0.4,0.3,0.6c0,0.2-0.2,0.8-0.5,1.8
			c-1.4,4.3-2.5,7.7-3.2,10.2c-1.2,4.3-1.8,7.4-1.8,9.5c0,1.6,0.4,2.4,1.2,2.4c1.1,0,2.3-0.6,3.7-1.7c2.5-2.1,5.1-5.1,7.6-9
			c1-1.6,1.8-3,2.3-4c0.2-0.4,0.4-0.5,0.8-0.5c0.1,0,0.3,0,0.4,0.1c0.4,0.2,0.5,0.5,0.5,0.8c0,0.1,0,0.3-0.1,0.4
			c-0.8,1.6-2,3.7-3.6,6c-2.7,3.9-5.5,7-8.3,9.3C89.6,44,87.8,44.7,86,44.7z M89.7,10.7c-1.1,0-2.1-0.5-2.8-1.4
			c-0.8-0.9-1.2-2-1.2-3.3c0-1.3,0.4-2.4,1.2-3.3c0.8-0.9,1.7-1.4,2.8-1.4c1.1,0,2,0.5,2.8,1.4c0.8,0.9,1.2,2,1.2,3.3
			c0,1.3-0.4,2.4-1.2,3.3C91.7,10.2,90.8,10.7,89.7,10.7z"/>
		<path class="st0" d="M101.2,16c-0.2,0-0.5-0.2-0.7-0.5c-0.3-0.4-0.4-0.6-0.4-0.7c0-0.1,0.1-0.2,0.2-0.3c2-2,3-4.3,3-6.8
			c-0.9,0-1.7-0.4-2.3-1.1c-0.6-0.7-1-1.6-1-2.7c0-1,0.3-1.9,1-2.7c0.6-0.7,1.4-1.1,2.3-1.1c0.9,0,1.6,0.5,2.3,1.4
			c0.6,0.9,0.9,2.1,0.9,3.6c0,4.6-1.5,8.1-4.5,10.6C101.7,15.8,101.4,16,101.2,16z"/>
		<path class="st0" d="M112.4,54.6c-1.7,0-3.2-0.6-4.5-1.8c-1.3-1.2-2.2-2.6-2.6-4.2c-0.1-0.5-0.2-1-0.2-1.5c0-1,0.4-2.1,1.1-3.3
			c0.7-1.2,2.5-2,5.2-2.6c-0.5-1.2-1.1-2.5-1.6-3.7c-1-2.2-1.7-3.6-1.9-4.2c-0.9-2.5-1.3-4.7-1.3-6.6c0-2.1,0.4-3.9,1.3-5.4
			c0.8-1.3,1.9-2.3,3.2-3c1.3-0.6,2.6-1,3.9-1c1.5,0,2.9,0.4,4.1,1.2c0.8,0.6,1.5,1.3,1.8,2.1c0.3,0.7,0.5,1.3,0.5,1.7
			c0,0.5-0.3,0.8-0.8,0.8c-0.6,0-0.9-0.3-1-0.8c-0.2-0.9-0.6-1.6-1.2-2.1c-0.6-0.5-1.3-0.7-2-0.7c-0.7,0-1.2,0.3-1.7,0.9
			c-0.5,0.6-0.7,1.4-0.7,2.6c0,1.3,0.2,3,0.7,4.9c0.4,1.6,0.9,3.2,1.5,4.9c0.7,2,1.3,4.4,2,7.2c2.6-0.7,4.8-1.6,6.5-2.7
			c2.4-1.5,4.1-2.9,5.1-4.4c1.5-2.1,2.8-4.3,4-6.7c0.2-0.4,0.4-0.5,0.8-0.5c0.1,0,0.3,0,0.4,0.1c0.4,0.2,0.5,0.5,0.5,0.8
			c0,0.2-0.5,1.2-1.5,3.1c-0.5,1-1.5,2.4-2.9,4.3s-3.2,3.5-5.3,4.8c-2.2,1.4-4.6,2.3-7.3,3c0.4,2.1,0.6,3.9,0.6,5.2
			c0,1.5-0.3,2.9-0.9,4c-0.6,1.1-1.4,2-2.4,2.6S113.4,54.6,112.4,54.6z M110.5,52.1c1.5,0,2.2-1.3,2.2-3.9c0-1.6-0.3-3.3-0.9-5.1
			c-3.4,0.7-5.1,2-5.1,4.1c0,0.3,0.1,0.8,0.3,1.5c0.2,0.7,0.7,1.4,1.4,2.2C109.2,51.7,109.9,52.1,110.5,52.1z"/>
		<path class="st0" d="M169.3,54.2c-2.9,0-5.5-1.8-7.6-5.4c-1.8-3-3.1-6.5-3.8-10.4c-1.6,0.4-3.3,0.7-5.1,0.8l0,2.4l0,3.6
			c0,0.4-0.2,0.7-0.5,0.9c-0.4,0.2-0.8,0.3-1.3,0.4c-0.5,0.1-0.9,0.1-1.1,0.1c-0.2,0-0.6,0-1-0.1c-0.4-0.1-0.8-0.2-1.2-0.4
			c-0.3-0.2-0.5-0.4-0.5-0.8c-0.5-5.3-0.8-10.3-0.8-15c0-2.6,0.1-5.1,0.2-7.4c0.4-6.8,1.7-14.2,3.9-22.1c0.1-0.5,0.4-0.7,0.8-0.7
			c2.8,0,5.2,0.9,7.1,2.7c0.2,0.2,0.2,0.4,0.2,0.6c-0.9,2.9-1.7,5.8-2.4,8.8c1-2.2,2.3-4.2,3.6-6c1.4-1.8,2.8-3.3,4.4-4.4
			c1.6-1.1,3.3-1.7,5-1.7c1.7,0,3.1,1,4.4,2.9c1.3,2,2,5.3,2,10c0,6.2-1.7,11.8-5,16.6c-2,3-4.8,5.4-8.4,7.2c0.7,3,1.8,5.7,3.4,8.1
			c1.6,2.4,4,4.1,7.3,5c0.5,0.2,0.8,0.3,0.9,0.4c0.1,0.1,0.1,0.2,0.1,0.2c0,0.2-0.1,0.5-0.3,0.9c-0.4,0.8-1,1.5-1.6,2
			C171.6,53.9,170.6,54.2,169.3,54.2z M153,36.1c3.4-0.6,6.1-2,8.1-4.1c2-2.1,3.5-4.6,4.5-7.4c1-2.8,1.5-6.1,1.5-9.8
			c0-2-0.2-3.8-0.5-5.3c-0.4-1.8-1-2.7-1.6-2.7c-2.1,0-4.2,1.8-6.3,5.5c-1.7,3-3.1,6.4-4,10.2C153.8,25.8,153.2,30.3,153,36.1z"/>
		<path class="st0" d="M191.8,50.4c-1.1,0-1.9-0.2-2.6-0.6c-0.7-0.4-1.2-1.1-1.7-1.9c-0.8-1.4-1.2-3.7-1.2-6.8
			c-1.5,2.9-3.7,4.3-6.5,4.3c-1.4,0-2.5-0.6-3.4-1.7c-0.9-1.1-1.5-2.6-2-4.5s-0.6-3.8-0.6-5.8c0-3.6,0.8-6.7,2.3-9.5
			c1.6-3,3.7-4.5,6.4-4.5c1.2,0,2.4,0.3,3.5,0.9c1.1,0.6,2,1.4,2.7,2.5c0.5-2.2,0.9-3.8,1.2-4.8c0.1-0.4,0.4-0.7,0.8-0.7
			c1.7,0,3.3,0.3,4.7,1c1.7,0.8,2.6,1.6,2.6,2.3c0,0.4-0.2,1.2-0.5,2.4c-0.8,2.6-1.7,6.5-2.8,11.8c-1.2,5.5-1.8,9.2-1.8,10.9
			c0,0.8,0.1,1.2,0.4,1.2c1.3,0,3.4-2,6.2-5.9c2-2.8,3.8-5.6,5.3-8.2c1.8-3.1,3-5.3,3.6-6.7c0.2-0.4,0.4-0.5,0.8-0.5
			c0.1,0,0.3,0,0.4,0.1c0.4,0.2,0.5,0.5,0.5,0.8c0,0.5-1.3,2.8-3.8,7.2c-2.5,4.3-4.8,7.8-6.8,10.4C196.5,48.4,193.9,50.4,191.8,50.4
			z M180.9,42.8c2,0,3.8-2.4,5.3-7.2c0.3-1,0.6-2.6,1-4.7c0.1-1,0.3-2,0.5-3c0.1-0.4,0.1-0.8,0.1-1.2c0-0.4-0.1-0.8-0.3-1.2
			c-0.2-0.4-0.4-0.7-0.7-0.9c-0.6-0.6-1.2-0.9-1.8-0.9c-0.9,0-1.8,0.5-2.7,1.5c-0.9,1-1.7,2.5-2.4,4.6c-0.6,2.1-1,4.7-1,8
			c0,0.8,0.1,1.6,0.2,2.3c0.1,0.8,0.4,1.4,0.7,1.9C180,42.5,180.4,42.8,180.9,42.8z"/>
		<path class="st0" d="M215.1,45.3c-3.3,0-5.8-1.4-7.6-4.1c-1.8-2.7-2.7-6.4-2.7-11.2c0-1.5,0.2-3.2,0.6-5c0.4-1.8,1-3.6,1.9-5.2
			c0.8-1.7,1.9-3,3.1-4.1c1.2-1.1,2.7-1.6,4.3-1.6c2.2,0,3.9,0.7,5.1,2c1.1,1.2,1.6,2.6,1.6,4.2c0,0.2,0,0.5,0,0.7
			c0,0.3-0.1,0.4-0.3,0.6c-0.2,0.1-0.4,0.2-0.6,0.2c-0.3,0-0.6-0.1-0.7-0.3c-0.2-0.2-0.2-0.4-0.2-0.6l0-0.5c0-0.6-0.1-1.1-0.4-1.4
			c-0.3-0.3-0.6-0.5-0.8-0.5c-0.8,0-1.7,0.5-2.5,1.6s-1.6,2.4-2.2,4c-0.7,1.6-1.2,3.4-1.6,5.2c-0.4,1.9-0.6,3.6-0.6,5.3
			c0,2,0.3,3.9,1,5.5c0.8,2,1.9,3,3.5,3c1.5,0,3.2-0.6,4.9-1.8c3.3-2.3,6.4-5.6,9.4-10c1.3-1.9,2.2-3.5,2.9-4.9
			c0.2-0.4,0.4-0.5,0.8-0.5c0.1,0,0.3,0,0.4,0.1c0.4,0.2,0.5,0.5,0.5,0.8c0,0.1,0,0.3-0.1,0.4c-1.5,3.2-3.8,6.6-6.9,10.2
			c-1.3,1.5-2.7,2.9-4.1,4.1s-2.8,2.2-4.3,2.9C218.1,45,216.6,45.3,215.1,45.3z"/>
		<path class="st0" d="M238.9,48.9c-1.9,0-3.6-0.6-5.2-1.9c-1.5-1.3-2.8-3-3.7-5.4c-0.9-2.3-1.3-5.1-1.3-8.3c0-1.5,0.2-3.2,0.6-5
			c0.4-1.8,1-3.6,1.9-5.2c0.8-1.7,1.9-3,3.1-4.1c1.2-1.1,2.7-1.6,4.3-1.6c1.7,0,3.1,0.4,4.2,1.3c1.8,1.4,2.7,3.5,2.7,6.2
			c0,0.4-0.1,1.1-0.2,2.1c-0.1,1-0.6,2.2-1.4,3.5c-0.8,1.4-1.9,2.6-3.3,3.5s-3.1,1.5-5.2,1.7c-0.1,0.7-0.1,1.4-0.1,2.1
			c0,2.1,0.3,4,1,5.6c0.8,1.9,1.9,2.9,3.5,2.9c1.3,0,2.6-0.5,4.1-1.5c2.7-1.8,5.6-4.8,8.6-8.9c2.6-3.6,4.6-6.8,5.9-9.6
			c0.2-0.4,0.4-0.5,0.8-0.5c0.1,0,0.3,0,0.4,0.1c0.4,0.2,0.5,0.5,0.5,0.8c0,0.1,0,0.3-0.1,0.4c-1.4,3.1-3.5,6.6-6.3,10.5
			c-1.4,2-2.9,3.8-4.5,5.5c-1.6,1.7-3.2,3.1-4.9,4.2C242.6,48.4,240.8,48.9,238.9,48.9z M235.7,33.9c2.2-0.3,3.9-1.1,5.1-2.3
			c1.8-1.8,2.7-4.1,2.7-6.7c0-2-0.4-3.1-1.3-3.1c-0.9,0-1.8,0.6-2.7,1.8c-0.9,1.2-1.7,2.7-2.3,4.5S236.1,31.9,235.7,33.9z"/>
	</g>
</g>
</svg>
